<mxfile host="app.diagrams.net" agent="Mozilla/5.0 (Windows NT 10.0; Win64; x64) AppleWebKit/537.36 (KHTML, like Gecko) Chrome/130.0.0.0 Safari/537.36" version="24.8.2">
  <diagram name="Page-1" id="2YBvvXClWsGukQMizWep">
    <mxGraphModel dx="1104" dy="618" grid="1" gridSize="10" guides="1" tooltips="1" connect="1" arrows="1" fold="1" page="1" pageScale="1" pageWidth="3300" pageHeight="4681" math="0" shadow="0">
      <root>
        <mxCell id="0" />
        <mxCell id="1" parent="0" />
        <mxCell id="HIjrE4euWUh72Sv6LP7a-1" value="" style="shape=umlLifeline;perimeter=lifelinePerimeter;whiteSpace=wrap;html=1;container=1;dropTarget=0;collapsible=0;recursiveResize=0;outlineConnect=0;portConstraint=eastwest;newEdgeStyle={&quot;curved&quot;:0,&quot;rounded&quot;:0};participant=umlActor;" vertex="1" parent="1">
          <mxGeometry x="624" y="398" width="20" height="692" as="geometry" />
        </mxCell>
        <mxCell id="HIjrE4euWUh72Sv6LP7a-2" value="interface" style="shape=umlLifeline;perimeter=lifelinePerimeter;whiteSpace=wrap;html=1;container=1;dropTarget=0;collapsible=0;recursiveResize=0;outlineConnect=0;portConstraint=eastwest;newEdgeStyle={&quot;curved&quot;:0,&quot;rounded&quot;:0};" vertex="1" parent="1">
          <mxGeometry x="754" y="398" width="100" height="692" as="geometry" />
        </mxCell>
        <mxCell id="HIjrE4euWUh72Sv6LP7a-5" value="" style="html=1;points=[[0,0,0,0,5],[0,1,0,0,-5],[1,0,0,0,5],[1,1,0,0,-5]];perimeter=orthogonalPerimeter;outlineConnect=0;targetShapes=umlLifeline;portConstraint=eastwest;newEdgeStyle={&quot;curved&quot;:0,&quot;rounded&quot;:0};" vertex="1" parent="HIjrE4euWUh72Sv6LP7a-2">
          <mxGeometry x="45" y="70" width="10" height="560" as="geometry" />
        </mxCell>
        <mxCell id="HIjrE4euWUh72Sv6LP7a-3" value="Views" style="shape=umlLifeline;perimeter=lifelinePerimeter;whiteSpace=wrap;html=1;container=1;dropTarget=0;collapsible=0;recursiveResize=0;outlineConnect=0;portConstraint=eastwest;newEdgeStyle={&quot;curved&quot;:0,&quot;rounded&quot;:0};" vertex="1" parent="1">
          <mxGeometry x="983" y="398" width="100" height="692" as="geometry" />
        </mxCell>
        <mxCell id="HIjrE4euWUh72Sv6LP7a-8" value="" style="html=1;points=[[0,0,0,0,5],[0,1,0,0,-5],[1,0,0,0,5],[1,1,0,0,-5]];perimeter=orthogonalPerimeter;outlineConnect=0;targetShapes=umlLifeline;portConstraint=eastwest;newEdgeStyle={&quot;curved&quot;:0,&quot;rounded&quot;:0};" vertex="1" parent="HIjrE4euWUh72Sv6LP7a-3">
          <mxGeometry x="46" y="93" width="10" height="497" as="geometry" />
        </mxCell>
        <mxCell id="HIjrE4euWUh72Sv6LP7a-16" value="" style="html=1;points=[[0,0,0,0,5],[0,1,0,0,-5],[1,0,0,0,5],[1,1,0,0,-5]];perimeter=orthogonalPerimeter;outlineConnect=0;targetShapes=umlLifeline;portConstraint=eastwest;newEdgeStyle={&quot;curved&quot;:0,&quot;rounded&quot;:0};" vertex="1" parent="HIjrE4euWUh72Sv6LP7a-3">
          <mxGeometry x="51" y="205" width="10" height="40" as="geometry" />
        </mxCell>
        <mxCell id="HIjrE4euWUh72Sv6LP7a-17" value="GetChangedData(instruction, data)" style="html=1;align=left;spacingLeft=2;endArrow=block;rounded=0;edgeStyle=orthogonalEdgeStyle;curved=0;rounded=0;" edge="1" target="HIjrE4euWUh72Sv6LP7a-16" parent="HIjrE4euWUh72Sv6LP7a-3">
          <mxGeometry x="-0.8731" y="10" relative="1" as="geometry">
            <mxPoint x="48.166666666666515" y="190" as="sourcePoint" />
            <Array as="points">
              <mxPoint x="121" y="190" />
              <mxPoint x="121" y="225" />
            </Array>
            <mxPoint as="offset" />
          </mxGeometry>
        </mxCell>
        <mxCell id="HIjrE4euWUh72Sv6LP7a-21" value="" style="html=1;points=[[0,0,0,0,5],[0,1,0,0,-5],[1,0,0,0,5],[1,1,0,0,-5]];perimeter=orthogonalPerimeter;outlineConnect=0;targetShapes=umlLifeline;portConstraint=eastwest;newEdgeStyle={&quot;curved&quot;:0,&quot;rounded&quot;:0};" vertex="1" parent="HIjrE4euWUh72Sv6LP7a-3">
          <mxGeometry x="51" y="340" width="10" height="40" as="geometry" />
        </mxCell>
        <mxCell id="HIjrE4euWUh72Sv6LP7a-22" value="GetTeamMemberWithRole(&quot;SecretariatTechnique)" style="html=1;align=left;spacingLeft=2;endArrow=block;rounded=0;edgeStyle=orthogonalEdgeStyle;curved=0;rounded=0;" edge="1" parent="HIjrE4euWUh72Sv6LP7a-3">
          <mxGeometry x="-0.894" y="12" relative="1" as="geometry">
            <mxPoint x="50.25" y="312" as="sourcePoint" />
            <Array as="points">
              <mxPoint x="132" y="312" />
              <mxPoint x="132" y="362" />
            </Array>
            <mxPoint x="61" y="362" as="targetPoint" />
            <mxPoint as="offset" />
          </mxGeometry>
        </mxCell>
        <mxCell id="HIjrE4euWUh72Sv6LP7a-4" value="Instruction" style="shape=umlLifeline;perimeter=lifelinePerimeter;whiteSpace=wrap;html=1;container=1;dropTarget=0;collapsible=0;recursiveResize=0;outlineConnect=0;portConstraint=eastwest;newEdgeStyle={&quot;curved&quot;:0,&quot;rounded&quot;:0};" vertex="1" parent="1">
          <mxGeometry x="1248" y="398" width="100" height="692" as="geometry" />
        </mxCell>
        <mxCell id="HIjrE4euWUh72Sv6LP7a-12" value="" style="html=1;points=[[0,0,0,0,5],[0,1,0,0,-5],[1,0,0,0,5],[1,1,0,0,-5]];perimeter=orthogonalPerimeter;outlineConnect=0;targetShapes=umlLifeline;portConstraint=eastwest;newEdgeStyle={&quot;curved&quot;:0,&quot;rounded&quot;:0};" vertex="1" parent="HIjrE4euWUh72Sv6LP7a-4">
          <mxGeometry x="45" y="110" width="10" height="50" as="geometry" />
        </mxCell>
        <mxCell id="HIjrE4euWUh72Sv6LP7a-6" value="ReformulerInstruction(data)" style="html=1;verticalAlign=bottom;endArrow=block;curved=0;rounded=0;entryX=0;entryY=0;entryDx=0;entryDy=5;" edge="1" target="HIjrE4euWUh72Sv6LP7a-5" parent="1" source="HIjrE4euWUh72Sv6LP7a-1">
          <mxGeometry relative="1" as="geometry">
            <mxPoint x="744" y="523" as="sourcePoint" />
          </mxGeometry>
        </mxCell>
        <mxCell id="HIjrE4euWUh72Sv6LP7a-7" value="return" style="html=1;verticalAlign=bottom;endArrow=open;dashed=1;endSize=8;curved=0;rounded=0;exitX=0;exitY=1;exitDx=0;exitDy=-5;" edge="1" source="HIjrE4euWUh72Sv6LP7a-5" parent="1" target="HIjrE4euWUh72Sv6LP7a-1">
          <mxGeometry relative="1" as="geometry">
            <mxPoint x="744" y="593" as="targetPoint" />
          </mxGeometry>
        </mxCell>
        <mxCell id="HIjrE4euWUh72Sv6LP7a-9" value="ReformulerInstruction(id_instruction, data)" style="html=1;verticalAlign=bottom;endArrow=block;curved=0;rounded=0;entryX=0;entryY=0;entryDx=0;entryDy=5;" edge="1" target="HIjrE4euWUh72Sv6LP7a-8" parent="1" source="HIjrE4euWUh72Sv6LP7a-2">
          <mxGeometry relative="1" as="geometry">
            <mxPoint x="854" y="503" as="sourcePoint" />
          </mxGeometry>
        </mxCell>
        <mxCell id="HIjrE4euWUh72Sv6LP7a-10" value="return" style="html=1;verticalAlign=bottom;endArrow=open;dashed=1;endSize=8;curved=0;rounded=0;exitX=0;exitY=1;exitDx=0;exitDy=-5;" edge="1" source="HIjrE4euWUh72Sv6LP7a-8" parent="1" target="HIjrE4euWUh72Sv6LP7a-2">
          <mxGeometry relative="1" as="geometry">
            <mxPoint x="854" y="573" as="targetPoint" />
          </mxGeometry>
        </mxCell>
        <mxCell id="HIjrE4euWUh72Sv6LP7a-13" value="" style="html=1;verticalAlign=bottom;endArrow=block;curved=0;rounded=0;entryX=0;entryY=0;entryDx=0;entryDy=5;" edge="1" target="HIjrE4euWUh72Sv6LP7a-12" parent="1">
          <mxGeometry relative="1" as="geometry">
            <mxPoint x="1031.1666666666665" y="513" as="sourcePoint" />
          </mxGeometry>
        </mxCell>
        <mxCell id="HIjrE4euWUh72Sv6LP7a-14" value="instruction" style="html=1;verticalAlign=bottom;endArrow=open;dashed=1;endSize=8;curved=0;rounded=0;exitX=0;exitY=1;exitDx=0;exitDy=-5;" edge="1" source="HIjrE4euWUh72Sv6LP7a-12" parent="1" target="HIjrE4euWUh72Sv6LP7a-8">
          <mxGeometry relative="1" as="geometry">
            <mxPoint x="1004" y="613" as="targetPoint" />
          </mxGeometry>
        </mxCell>
        <mxCell id="HIjrE4euWUh72Sv6LP7a-15" value="GetInstructionById(id_instruction)" style="text;html=1;align=center;verticalAlign=middle;resizable=0;points=[];autosize=1;strokeColor=none;fillColor=none;" vertex="1" parent="1">
          <mxGeometry x="1044" y="486" width="200" height="30" as="geometry" />
        </mxCell>
        <mxCell id="HIjrE4euWUh72Sv6LP7a-18" value="Reformulation" style="shape=umlLifeline;perimeter=lifelinePerimeter;whiteSpace=wrap;html=1;container=1;dropTarget=0;collapsible=0;recursiveResize=0;outlineConnect=0;portConstraint=eastwest;newEdgeStyle={&quot;curved&quot;:0,&quot;rounded&quot;:0};" vertex="1" parent="1">
          <mxGeometry x="1344" y="643" width="100" height="457" as="geometry" />
        </mxCell>
        <mxCell id="HIjrE4euWUh72Sv6LP7a-19" value="" style="endArrow=open;endFill=1;endSize=12;html=1;rounded=0;entryX=0.02;entryY=0.068;entryDx=0;entryDy=0;entryPerimeter=0;" edge="1" parent="1">
          <mxGeometry width="160" relative="1" as="geometry">
            <mxPoint x="1039" y="662.54" as="sourcePoint" />
            <mxPoint x="1345.9999999999998" y="662.54" as="targetPoint" />
          </mxGeometry>
        </mxCell>
        <mxCell id="HIjrE4euWUh72Sv6LP7a-20" value="CerateReformulation(modificationData, instruction)" style="text;html=1;align=center;verticalAlign=middle;whiteSpace=wrap;rounded=0;" vertex="1" parent="1">
          <mxGeometry x="1044" y="638" width="290" height="30" as="geometry" />
        </mxCell>
        <mxCell id="HIjrE4euWUh72Sv6LP7a-23" value="Loop : AllMember" style="shape=umlFrame;whiteSpace=wrap;html=1;pointerEvents=0;width=116;height=22;" vertex="1" parent="1">
          <mxGeometry x="514" y="788" width="1080" height="112" as="geometry" />
        </mxCell>
        <mxCell id="HIjrE4euWUh72Sv6LP7a-24" value="Notification" style="shape=umlLifeline;perimeter=lifelinePerimeter;whiteSpace=wrap;html=1;container=1;dropTarget=0;collapsible=0;recursiveResize=0;outlineConnect=0;portConstraint=eastwest;newEdgeStyle={&quot;curved&quot;:0,&quot;rounded&quot;:0};" vertex="1" parent="1">
          <mxGeometry x="1454" y="810" width="100" height="290" as="geometry" />
        </mxCell>
        <mxCell id="HIjrE4euWUh72Sv6LP7a-25" value="" style="endArrow=open;endFill=1;endSize=12;html=1;rounded=0;entryX=0.019;entryY=0.046;entryDx=0;entryDy=0;entryPerimeter=0;" edge="1" parent="1" source="HIjrE4euWUh72Sv6LP7a-8" target="HIjrE4euWUh72Sv6LP7a-24">
          <mxGeometry width="160" relative="1" as="geometry">
            <mxPoint x="1094" y="833" as="sourcePoint" />
            <mxPoint x="1254" y="833" as="targetPoint" />
          </mxGeometry>
        </mxCell>
        <mxCell id="HIjrE4euWUh72Sv6LP7a-26" value="&lt;span style=&quot;font-weight: normal;&quot;&gt;CreateNotificationForParticipant&lt;/span&gt;" style="text;align=center;fontStyle=1;verticalAlign=middle;spacingLeft=3;spacingRight=3;strokeColor=none;rotatable=0;points=[[0,0.5],[1,0.5]];portConstraint=eastwest;html=1;" vertex="1" parent="1">
          <mxGeometry x="1104" y="798" width="190" height="26" as="geometry" />
        </mxCell>
        <mxCell id="HIjrE4euWUh72Sv6LP7a-27" value="Seq : Reformuler Instruction" style="shape=umlFrame;whiteSpace=wrap;html=1;pointerEvents=0;recursiveResize=0;container=1;collapsible=0;width=270;height=20;" vertex="1" parent="1">
          <mxGeometry x="460" y="320" width="1240" height="770" as="geometry" />
        </mxCell>
      </root>
    </mxGraphModel>
  </diagram>
</mxfile>
